<?xml version="1.0" encoding="UTF-8" standalone="no"?>
<svg
   xmlns:dc="http://purl.org/dc/elements/1.1/"
   xmlns:cc="http://creativecommons.org/ns#"
   xmlns:rdf="http://www.w3.org/1999/02/22-rdf-syntax-ns#"
   xmlns:svg="http://www.w3.org/2000/svg"
   xmlns="http://www.w3.org/2000/svg"
   xmlns:sodipodi="http://sodipodi.sourceforge.net/DTD/sodipodi-0.dtd"
   xmlns:inkscape="http://www.inkscape.org/namespaces/inkscape"
   height="200"
   width="200"
   fill="#000000"
   version="1.1"
   x="0px"
   y="0px"
   viewBox="0 0 24 24"
   enable-background="new 0 0 24 24"
   xml:space="preserve"
   id="svg2"
   inkscape:version="0.91 r13725"
   sodipodi:docname="food.svg"><metadata
     id="metadata22"><rdf:RDF><cc:Work
         rdf:about=""><dc:format>image/svg+xml</dc:format><dc:type
           rdf:resource="http://purl.org/dc/dcmitype/StillImage" /><dc:title /></cc:Work></rdf:RDF></metadata><defs
     id="defs20" /><sodipodi:namedview
     pagecolor="#ffffff"
     bordercolor="#666666"
     borderopacity="1"
     objecttolerance="10"
     gridtolerance="10"
     guidetolerance="10"
     inkscape:pageopacity="0"
     inkscape:pageshadow="2"
     inkscape:window-width="1625"
     inkscape:window-height="1026"
     id="namedview18"
     showgrid="false"
     inkscape:zoom="1.18"
     inkscape:cx="100"
     inkscape:cy="100"
     inkscape:window-x="55"
     inkscape:window-y="24"
     inkscape:window-maximized="1"
     inkscape:current-layer="svg2" /><polygon
     points="4,22 20,22 22,16 2,16 "
     id="polygon8" /><path
     d="m 6,14 2,0 c 0,-0.6 0.4,-1 1,-1 0.6,0 1,0.4 1,1 l 2,0 c 0,-1.7 -1.3,-3 -3,-3 -1.6,0 -3,1.3 -3,3 z"
     id="path12"
     inkscape:connector-curvature="0" /><path
     d="m 9,9 c 2.8,0 5,2.2 5,5 l 2,0 2,0 C 18,12.5 16.8,11.2 15.3,11 15,10.3 14.6,9.7 14,9.1 14.3,9 14.7,9 15,9 c 2.8,0 5,2.2 5,5 l 2,0 C 22,11.6 20.8,9.5 19,8.2 18.6,4.7 15.6,2 12,2 8.4,2 5.4,4.7 5,8.2 3.2,9.5 2,11.6 2,14 l 2,0 C 4,11.2 6.2,9 9,9 Z m 3,-5 c 2.1,0 3.9,1.3 4.7,3.2 C 16.1,7.1 15.6,7 15,7 14.8,7 14.5,7 14.3,7 13.7,6.4 12.9,6 12,6 11.1,6 10.3,6.4 9.7,7 9.5,7 9.3,7 9,7 8.4,7 7.9,7.1 7.4,7.2 8.1,5.3 9.9,4 12,4 Z"
     id="path16"
     inkscape:connector-curvature="0" /></svg>
